<svg xmlns="http://www.w3.org/2000/svg" version="1.1" xmlns:xlink="http://www.w3.org/1999/xlink" xmlns:svgjs="http://svgjs.dev/svgjs" viewBox="0 0 800 800"><defs><linearGradient x1="50%" y1="0%" x2="50%" y2="100%" id="ccchaos-grad"><stop stop-color="hsl(266, 75%, 49%)" stop-opacity="1" offset="0%"></stop><stop stop-color="hsl(266, 32%, 81%)" stop-opacity="1" offset="100%"></stop></linearGradient></defs><g stroke-width="2" stroke="url(#ccchaos-grad)" fill="none" stroke-linecap="round"><path d="M384.91 47.27C390.97 46.87 396.93 46.31 402.8 45.61 411.55 44.12 428.55 40.78 436.79 39.21 444.94 37.85 460.73 36.68 468.39 37.11 475.99 38.33 490.81 43.34 498.07 47.11 502.93 50.04 507.74 53.34 512.52 56.97 517.35 60.79 522.17 64.88 526.99 69.2 531.88 73.6 536.79 78.14 541.73 82.79 546.77 87.41 551.87 92.06 557.03 96.71 562.31 101.23 567.68 105.69 573.15 110.06 584.53 118.2 596.38 125.88 608.73 133.07 621.72 139.37 635.19 145.34 649.05 151.12 663.29 156.35 677.64 161.73 691.85 167.41 705.83 173 719.13 179.18 731.38 186.02 737.12 189.52 742.48 193.22 747.41 197.1 754.02 203.15 763.98 216.34 767.18 223.46 769.07 230.88 769.16 246.62 767.43 254.88 765.74 260.5 763.56 266.23 760.94 272.05 758.12 277.93 754.98 283.88 751.57 289.9 748.15 295.96 744.62 302.07 741.04 308.22 737.67 314.4 734.41 320.6 731.32 326.81 728.66 333.04 726.31 339.27 724.34 345.49 722.95 351.73 722.02 357.94 721.59 364.13 721.84 370.32 722.62 376.48 723.92 382.6 725.89 388.72 728.31 394.72 731.14 400.6 734.48 406.48 738.1 412.24 741.92 417.88 746.05 423.52 750.22 429.05 754.36 434.46 758.57 439.87 762.58 445.18 766.32 450.39 771.48 458.18 779.01 473.41 781.07 480.91 781.8 488.46 779.19 503.64 775.85 511.36 772.91 516.65 769.36 522.01 765.25 527.47 760.71 533.08 755.68 538.82 750.21 544.71 744.42 550.78 738.28 557.01 731.84 563.43 725.22 570.05 718.39 576.86 711.4 583.87 697.29 598.42 683.04 613.65 668.97 629.38 655.44 645.34 642.45 661.24 630.09 676.62 618.61 691.11 607.8 704.16 597.6 715.17 588.22 724.1 579.28 730.27 570.65 733.44 564.51 734.11 552.48 731.33 546.5 728.23 540.59 724.45 528.51 716.12 522.28 712.31 515.98 709.59 502.81 707.97 495.91 709.6 491.27 711.9 486.49 715.03 481.57 718.97 476.64 723.81 471.58 729.34 466.37 735.49 461.16 742.22 455.81 749.29 450.32 756.55 444.83 763.91 439.2 771.09 433.44 777.9 427.68 784.26 421.79 789.89 415.78 794.6 409.76 798.4 403.63 801.03 397.39 802.39 391.14 802.58 384.87 801.44 378.57 799.03 372.27 795.57 365.95 791.03 359.62 785.54 353.3 779.39 346.97 772.61 340.65 765.42 334.34 758.08 328.03 750.67 321.74 743.39 315.46 736.48 309.21 729.99 302.98 724.06 296.78 718.88 290.62 714.44 284.49 710.78 278.4 708.05 272.35 706.13 266.37 704.99 260.42 704.74 254.53 705.15 248.72 706.14 242.95 707.78 237.26 709.8 231.66 712.07 223.39 715.96 207.43 723.3 199.77 726.09 194.76 727.5 189.87 728.32 185.11 728.52 175.77 727.34 166.95 723.27 158.69 716.39 150.62 707.31 143.09 695.92 136.1 682.71 129.19 668.29 122.75 652.93 116.77 637.14 110.73 621.25 105.04 605.57 99.71 590.36 96.97 582.95 94.31 575.7 91.71 568.63 89.06 561.72 86.47 554.98 83.95 548.41 81.36 542.01 78.84 535.76 76.39 529.65 73.87 523.7 71.43 517.86 69.06 512.12 66.64 506.51 64.3 500.97 62.05 495.48 58.65 487.41 52.33 471.44 49.44 463.45 46.67 455.5 41.82 439.34 39.78 431.1 37.93 422.78 35.12 405.7 34.19 396.92 33.67 391.03 33.34 385.04 33.2 378.96 33.11 372.87 33.21 366.77 33.52 360.65 33.86 354.53 34.41 348.4 35.14 342.28 35.92 336.16 36.89 330.05 38.04 323.96 39.23 317.89 40.6 311.85 42.14 305.85 43.72 299.88 45.46 293.97 47.37 288.12 49.29 282.31 51.37 276.58 53.59 270.95 55.81 265.37 58.17 259.9 60.65 254.55 64.41 246.69 72.41 231.79 76.62 224.81 80.83 218.1 89.53 205.7 93.99 200 96.92 196.32 99.9 192.81 102.94 189.47 108.81 182.86 114.92 176.79 121.27 171.17 127.4 165.29 133.85 159.56 140.61 153.82 147.29 147.4 154.38 140.69 161.89 133.57 169.44 125.55 177.47 117.08 185.97 108.21 190.27 103.53 194.69 98.8 199.24 94.07 203.82 89.26 208.52 84.49 213.33 79.82 218.19 75.18 223.16 70.7 228.23 66.43 233.35 62.31 238.57 58.46 243.89 54.93 249.24 51.64 254.69 48.72 260.21 46.2 265.78 43.96 271.41 42.15 277.12 40.77 282.86 39.67 288.65 38.98 294.5 38.68 300.38 38.59 306.3 38.84 312.26 39.38 318.24 40.02 324.24 40.87 330.28 41.87 336.32 42.81 342.38 43.8 348.45 44.81 354.53 45.6 360.61 46.32 366.69 46.92 372.77 47.2 378.85 47.33 384.9 47.27" stroke-dasharray="7 11" transform="rotate(0, 400, 400)" opacity="0.64"></path><path d="M380.82 61.79C389.43 61.12 406.27 58.69 414.51 57.12 422.66 55.34 438.59 52.26 446.37 51.24 456.72 50.49 466.83 51.15 476.71 53.38 486.71 56.72 496.59 61.69 506.41 68.12 516.47 75.41 526.6 83.72 536.87 92.73 547.54 101.82 558.5 111.08 569.79 120.26 581.58 128.83 593.79 137.02 606.4 144.78 619.46 151.69 632.85 158.21 646.43 164.45 660.18 170.04 673.82 175.59 687.1 181.26 699.97 186.65 711.99 192.43 722.84 198.69 732.58 205.01 740.64 211.97 746.75 219.58 751.26 227.42 753.6 235.94 753.7 245.08 752.32 254.46 749.01 264.41 744.04 274.82 738.5 285.41 732.13 296.38 725.44 307.61 722.39 313.27 719.46 318.97 716.71 324.72 714.36 330.48 712.29 336.27 710.57 342.08 709.39 347.9 708.63 353.74 708.32 359.57 708.62 365.41 709.39 371.25 710.64 377.09 712.48 382.92 714.74 388.68 717.35 394.35 720.44 400.03 723.78 405.62 727.3 411.14 731.12 416.67 735 422.12 738.85 427.5 742.79 432.9 746.57 438.23 750.12 443.52 756.83 454.16 761.9 464.68 764.99 475.17 766.49 485.92 765.58 496.81 762.27 507.95 757.14 519.55 749.81 531.6 740.57 544.17 730.06 557.33 718.2 571.08 705.39 585.4 692.16 600.15 678.55 615.24 664.9 630.43 651.53 645.44 638.48 659.96 625.88 673.54 613.96 685.95 602.59 696.65 591.78 705.19 581.67 711.71 572.01 715.65 562.7 716.9 553.95 716.3 545.36 713.54 536.82 709.1 528.62 704.46 520.28 699.65 511.74 695.55 503.34 693.65 494.6 693.97 485.48 697.06 476.39 703.58 466.85 712.92 456.85 724.6 451.85 731.2 446.73 738.05 441.49 745 436.24 751.98 430.88 758.75 425.4 765.12 419.92 771.05 414.33 776.28 408.63 780.65 402.92 784.16 397.11 786.6 391.19 787.87 385.28 788.07 379.34 787.05 373.38 784.86 367.42 781.71 361.45 777.54 355.47 772.48 349.5 766.78 343.52 760.47 337.55 753.72 331.6 746.78 325.65 739.71 319.73 732.68 307.93 719.55 296.24 708.16 284.73 699.21 273.34 693.51 262.17 690.69 251.3 690.43 240.59 692.81 230.22 696.52 220.26 700.71 210.5 705.33 201.17 708.87 192.34 710.71 183.7 711.09 175.55 709 167.93 704.39 160.45 697.78 153.46 688.85 146.96 677.95 140.49 665.64 134.44 652.06 128.8 637.65 123.06 622.77 117.64 607.68 112.52 592.7 107.18 577.93 102.09 563.57 97.25 549.71 92.14 536.33 87.26 523.47 82.66 511.08 77.83 499.12 73.31 487.49 69.17 476.1 64.92 464.99 61.11 453.94 57.83 442.89 55.44 434.65 51.45 418.06 49.88 409.67 48.54 401.23 46.83 384.11 46.48 375.41 46.41 366.69 47.35 349.35 48.35 340.76 49.61 332.21 53.13 315.36 55.37 307.11 58.57 296.21 62.41 285.64 66.82 275.5 71.26 265.52 76.19 256.04 81.54 247.14 86.77 238.44 92.34 230.35 98.18 222.9 103.79 215.59 109.63 208.86 115.67 202.68 121.43 196.42 127.41 190.52 133.59 184.86 139.53 178.8 145.74 172.72 152.23 166.48 158.6 159.51 165.31 152.19 172.4 144.45 179.47 135.91 186.97 127 194.91 117.83 202.91 108.23 211.38 98.74 220.28 89.65 229.3 80.86 238.75 72.99 248.58 66.35 258.53 60.69 268.84 56.57 279.45 54.09 290.15 52.65 301.11 52.64 312.26 53.83 320.67 55 337.7 57.94 346.28 59.42 354.89 60.55 372.16 61.8 380.81 61.79" stroke-dasharray="1 6" transform="rotate(4.04, 400, 400)" opacity="0.28"></path><path d="M378.28 76.31C389.27 75.23 400.07 73.62 410.64 71.72 421.22 69.2 431.59 67.05 441.77 65.59 452 64.57 462.09 64.83 472.06 66.54 482.17 69.29 492.25 73.62 502.35 79.4 512.69 86.07 523.17 93.87 533.84 102.49 544.86 111.35 556.15 120.56 567.75 129.84 579.75 138.7 592.07 147.32 604.66 155.59 617.55 163.1 630.6 170.22 643.65 177.01 656.67 183.11 669.41 189.04 681.6 194.94 693.25 200.43 703.94 206.12 713.37 212.11 721.69 218 728.37 224.36 733.18 231.26 736.56 238.23 737.96 245.81 737.37 253.95 735.55 262.26 732.07 271.11 727.19 280.46 721.94 289.94 716.06 299.85 709.97 310.12 704.79 320.46 700.29 331.09 696.86 341.93 695.41 352.79 695.54 363.83 697.36 374.99 701.33 386.16 706.59 397.18 712.74 408.06 720.02 418.97 727.26 429.78 733.99 440.54 740.42 451.41 745.46 462.33 748.77 473.38 750.75 484.66 750.57 496.21 748.21 508.08 744.22 520.33 738.15 533.01 730.23 546.15 721.05 559.66 710.46 573.59 698.81 587.82 686.59 602.17 673.81 616.52 660.78 630.59 647.82 644.16 634.96 656.89 622.38 668.37 610.28 678.54 598.59 686.88 587.35 693.07 576.7 697.44 566.47 699.48 556.6 699.25 547.23 697.65 538.09 694.43 529.09 690.12 520.43 686.07 511.75 682.28 502.98 679.52 494.39 679.03 485.59 680.74 476.52 685.01 467.51 692.35 458.17 702.1 448.47 713.75 438.78 726.86 428.7 740.09 418.24 752.29 407.77 762.75 396.92 770.05 385.72 773.34 374.51 772.8 363.25 767.92 351.98 759.35 340.73 748.34 329.52 735.48 318.4 721.94 307.35 709.12 296.42 697.59 285.7 688.07 275.09 681.37 264.71 677.24 254.65 675.54 244.72 676.43 235.14 678.85 225.97 682.09 216.95 686.16 208.36 689.7 200.24 692.1 192.27 693.57 184.75 693.04 177.72 690.35 170.78 685.97 164.28 679.37 158.21 670.81 152.14 660.79 146.43 649.27 141.07 636.64 135.59 623.27 130.38 609.34 125.43 595.16 120.26 580.89 115.29 566.74 110.55 552.86 105.53 539.23 100.73 525.98 96.18 513.15 91.4 500.64 86.92 488.47 82.79 476.62 78.54 465.01 74.72 453.59 71.4 442.31 68.1 431.15 65.39 420.02 63.32 408.91 61.4 397.83 60.2 386.7 59.77 375.53 59.57 364.36 60.17 353.4 61.54 342.7 63.14 332.01 65.49 321.61 68.52 311.56 71.72 301.57 75.54 291.98 79.93 282.86 84.35 273.84 89.25 265.32 94.55 257.36 99.75 249.49 105.27 242.16 111.05 235.37 116.61 228.57 122.39 222.21 128.35 216.23 134.04 210.02 139.91 204 145.97 198.06 151.77 191.61 157.8 185.01 164.08 178.17 170.18 170.61 176.6 162.69 183.33 154.4 190 145.44 197.05 136.23 204.48 126.92 211.94 117.37 219.81 108.11 228.08 99.4 236.43 91.14 245.18 83.91 254.31 77.94 263.52 72.98 273.09 69.52 282.96 67.61 292.9 66.64 303.12 66.97 313.56 68.37 324.04 69.95 334.71 71.95 345.52 74.06 356.34 75.33 367.27 76.13 378.27 76.31" stroke-dasharray="1 1" transform="rotate(8.08, 400, 400)" opacity="0.49"></path><path d="M377.5 90.83C388.02 89.77 398.42 88.21 408.68 86.34 418.96 83.85 429.14 81.65 439.21 80.05 449.34 78.78 459.42 78.67 469.47 79.89 479.65 82.07 489.89 85.74 500.21 90.83 510.75 96.85 521.46 104.03 532.37 112.15 543.56 120.65 555 129.64 566.68 138.87 578.65 147.87 590.84 156.77 603.16 165.44 615.63 173.48 628.1 181.19 640.4 188.56 652.53 195.25 664.2 201.71 675.2 208.02 685.57 213.84 694.9 219.71 702.94 225.72 709.91 231.49 715.3 237.59 718.95 244.08 721.34 250.52 721.95 257.44 720.8 264.86 718.67 272.34 715.12 280.34 710.41 288.82 705.51 297.37 700.13 306.39 694.64 315.81 690.07 325.28 686.14 335.12 683.2 345.28 682.05 355.44 682.32 365.91 684.07 376.63 687.77 387.36 692.6 398.1 698.24 408.86 704.93 419.65 711.64 430.5 717.92 441.44 724.05 452.49 728.99 463.72 732.44 475.15 734.78 486.79 735.22 498.74 733.7 511.01 730.73 523.53 725.83 536.41 719.17 549.6 711.29 562.95 701.99 576.49 691.55 590.06 680.45 603.47 668.64 616.57 656.4 629.07 644.06 640.85 631.64 651.54 619.3 660.81 607.27 668.74 595.5 674.85 584.07 678.93 573.09 681.48 562.47 682.05 552.18 680.76 542.33 678.61 532.73 675.34 523.31 671.47 514.23 668.26 505.21 665.64 496.19 664.25 487.37 665.12 478.44 668.1 469.35 673.41 460.35 681.4 451.13 691.41 441.65 702.92 432.19 715.52 422.44 728.02 412.4 739.39 402.36 749.06 392.01 755.78 381.39 758.82 370.77 758.38 360.14 753.98 349.55 746.15 338.98 736.01 328.48 724.02 318.1 711.18 307.78 698.75 297.61 687.23 287.67 677.31 277.82 669.78 268.23 664.52 258.95 661.47 249.78 660.91 240.96 661.96 232.53 664.08 224.23 667.33 216.33 670.5 208.86 673.03 201.5 675.12 194.56 675.69 188.06 674.51 181.59 671.99 175.52 667.49 169.83 661.13 164.09 653.39 158.66 644.06 153.55 633.44 148.27 621.93 143.22 609.58 138.41 596.69 133.36 583.46 128.49 570.06 123.81 556.69 118.87 543.35 114.12 530.2 109.61 517.35 104.87 504.67 100.41 492.31 96.28 480.25 92.05 468.37 88.23 456.74 84.88 445.34 81.58 434.04 78.83 422.9 76.72 411.91 74.77 400.94 73.53 390.07 73.05 379.3 72.82 368.53 73.39 358.11 74.72 348.04 76.3 337.97 78.61 328.29 81.61 319.02 84.78 309.77 88.57 300.96 92.91 292.63 97.3 284.34 102.15 276.52 107.4 269.2 112.56 261.87 118.04 254.98 123.77 248.52 129.29 241.92 135.02 235.62 140.93 229.54 146.57 223.12 152.37 216.76 158.34 210.34 164.05 203.37 169.95 196.19 176.06 188.72 181.97 180.6 188.15 172.15 194.6 163.43 200.95 154.19 207.63 144.85 214.64 135.57 221.63 126.24 228.99 117.36 236.72 109.17 244.48 101.54 252.62 95.01 261.11 89.77 269.65 85.52 278.54 82.7 287.74 81.33 296.99 80.8 306.53 81.43 316.31 83.01 326.12 84.67 336.15 86.67 346.36 88.71 356.59 89.93 366.97 90.68 377.49 90.83" stroke-dasharray="9 4" transform="rotate(12.12, 400, 400)" opacity="0.91"></path><path d="M378.55 105.36C388.63 104.33 398.68 102.81 408.67 100.99 418.68 98.55 428.67 96.33 438.63 94.61 448.65 93.14 458.7 92.7 468.79 93.46 478.99 95.08 489.3 98.1 499.73 102.5 510.34 107.8 521.12 114.3 532.09 121.8 543.27 129.81 554.64 138.43 566.18 147.45 577.89 156.41 589.71 165.43 601.54 174.36 613.37 182.81 625.06 191.01 636.44 198.91 647.53 206.21 658.04 213.25 667.78 220.09 676.84 226.39 684.83 232.64 691.55 238.92 697.26 244.85 701.48 250.97 704.11 257.34 705.65 263.56 705.62 270.15 704.06 277.14 701.72 284.09 698.21 291.5 693.74 299.36 689.22 307.23 684.35 315.55 679.46 324.31 675.46 333.09 672.08 342.28 669.58 351.86 668.72 361.45 669.11 371.42 670.79 381.76 674.22 392.1 678.65 402.58 683.79 413.2 689.92 423.84 696.09 434.67 701.94 445.67 707.72 456.76 712.51 468.09 716.02 479.66 718.63 491.37 719.57 503.37 718.77 515.62 716.71 528 712.87 540.6 707.38 553.32 700.75 566.02 692.72 578.67 683.52 591.09 673.59 603.13 662.86 614.61 651.56 625.25 640.02 635.05 628.23 643.63 616.36 650.72 604.64 656.57 593.03 660.7 581.63 663.03 570.55 664.16 559.75 663.69 549.22 661.81 539.05 659.5 529.12 656.53 519.4 653.39 509.97 651.19 500.66 649.82 491.42 649.78 482.37 651.94 473.3 656.05 464.17 662.22 455.14 670.7 445.98 680.82 436.67 692.09 427.39 704.14 417.91 715.88 408.23 726.42 398.56 735.33 388.67 741.5 378.58 744.3 368.49 743.96 358.45 740 348.5 732.87 338.57 723.59 328.74 712.46 319.08 700.36 309.46 688.41 300.03 677.04 290.83 666.89 281.71 658.73 272.85 652.49 264.31 648.24 255.86 646.3 247.75 645.98 240.01 646.86 232.35 649.09 225.08 651.58 218.2 653.86 211.38 656.12 204.95 657.33 198.9 657.21 192.84 656.13 187.13 653.38 181.76 648.95 176.28 643.32 171.09 636.13 166.16 627.59 161.04 618.11 156.12 607.6 151.4 596.35 146.44 584.58 141.63 572.38 137 559.98 132.11 547.42 127.4 534.86 122.91 522.42 118.21 510.03 113.78 497.84 109.66 485.9 105.45 474.05 101.63 462.46 98.29 451.12 94.98 439.85 92.22 428.81 90.09 417.98 88.12 407.19 86.85 396.58 86.33 386.17 86.07 375.76 86.6 365.77 87.89 356.22 89.43 346.65 91.7 337.52 94.63 328.84 97.76 320.14 101.49 311.89 105.77 304.09 110.1 296.26 114.9 288.86 120.08 281.87 125.2 274.79 130.62 268.04 136.3 261.6 141.79 254.93 147.48 248.43 153.34 242.02 158.95 235.21 164.72 228.36 170.62 221.37 176.28 213.83 182.1 206.06 188.09 198.02 193.87 189.43 199.87 180.6 206.11 171.6 212.21 162.27 218.6 152.98 225.27 143.91 231.88 134.98 238.83 126.61 246.1 119.05 253.36 112.15 260.98 106.37 268.92 101.88 276.88 98.33 285.18 96.13 293.79 95.27 302.41 95.13 311.34 96.02 320.53 97.73 329.74 99.44 339.19 101.41 348.87 103.38 358.55 104.53 368.45 105.23 378.54 105.36" stroke-dasharray="3 4" transform="rotate(16.16, 400, 400)" opacity="0.96"></path><path d="M381.33 119.88C391.03 118.88 400.75 117.42 410.48 115.67 420.23 113.28 430.02 111.07 439.84 109.27 449.72 107.63 459.68 106.9 469.72 107.25 479.86 108.34 490.13 110.73 500.52 114.43 511.06 119 521.75 124.76 532.58 131.56 543.55 138.95 554.65 147.07 565.82 155.71 577.07 164.46 588.3 173.41 599.43 182.41 610.46 191.1 621.21 199.65 631.54 207.99 641.5 215.82 650.8 223.42 659.26 230.8 667.04 237.68 673.75 244.42 679.22 251.11 683.79 257.41 686.98 263.78 688.74 270.29 689.57 276.57 689.04 283.1 687.2 289.94 684.77 296.66 681.36 303.75 677.19 311.23 673.08 318.67 668.73 326.54 664.42 334.83 660.97 343.1 658.09 351.8 656.01 360.94 655.41 370.06 655.89 379.61 657.51 389.6 660.68 399.59 664.73 409.8 669.4 420.21 674.99 430.64 680.64 441.3 686.03 452.18 691.46 463.12 696.04 474.29 699.54 485.69 702.33 497.15 703.67 508.82 703.47 520.64 702.19 532.45 699.3 544.33 694.89 556.13 689.43 567.76 682.62 579.12 674.64 590.02 665.92 600.41 656.33 610.06 646.06 618.73 635.46 626.53 624.47 633.08 613.27 638.18 602.06 642.22 590.83 644.73 579.69 645.72 568.75 645.87 557.97 644.79 547.41 642.73 537.11 640.64 527.02 638.26 517.13 636.05 507.48 634.97 497.97 634.88 488.58 636.14 479.36 639.46 470.19 644.54 461.03 651.4 451.97 660.21 442.86 670.32 433.68 681.24 424.55 692.68 415.3 703.65 405.94 713.38 396.59 721.57 387.11 727.21 377.5 729.78 367.9 729.52 358.4 725.98 349.05 719.53 339.7 711.07 330.51 700.79 321.51 689.47 312.54 678.08 303.79 666.98 295.29 656.76 286.84 648.15 278.66 641.13 270.8 635.84 262.99 632.63 255.51 630.98 248.39 630.59 241.31 631.65 234.58 633.24 228.21 634.95 218.86 637.69 201.75 638.07 193.91 634.5 188.65 630.69 183.63 625.44 178.83 618.87 173.83 611.41 169 602.85 164.35 593.39 159.44 583.34 154.68 572.68 150.08 561.59 145.23 550.22 140.55 538.66 136.08 527.03 131.41 515.33 127.01 503.7 122.91 492.2 118.73 480.74 114.94 469.45 111.6 458.4 108.32 447.38 105.57 436.58 103.42 426.02 101.46 415.49 100.17 405.17 99.62 395.1 99.33 385.02 99.82 375.41 101.04 366.25 102.54 357.07 104.74 348.33 107.6 340.03 110.66 331.69 114.31 323.76 118.5 316.24 122.77 308.64 127.48 301.39 132.59 294.46 137.64 287.37 143 280.52 148.62 273.86 154.07 266.91 159.73 260.03 165.55 253.15 171.14 245.86 176.88 238.46 182.75 230.88 188.37 222.83 194.14 214.55 200.05 206.07 205.76 197.16 211.64 188.12 217.73 179.05 223.65 169.81 229.82 160.77 236.24 152.1 242.56 143.7 249.18 135.99 256.08 129.16 262.94 123.04 270.12 118.04 277.61 114.3 285.08 111.43 292.88 109.82 300.98 109.43 309.07 109.63 317.46 110.73 326.14 112.54 334.82 114.27 343.77 116.19 352.97 118.06 362.17 119.14 371.62 119.78 381.32 119.88" stroke-dasharray="3 9" transform="rotate(20.200000000000003, 400, 400)" opacity="0.86"></path><path d="M385.63 134.4C394.96 133.44 404.36 132.05 413.82 130.36 423.3 128.06 432.87 125.87 442.5 124.03 452.19 122.26 461.98 121.29 471.87 121.26 481.84 121.86 491.93 123.66 502.14 126.67 512.44 130.5 522.86 135.5 533.37 141.54 543.94 148.21 554.57 155.7 565.18 163.8 575.78 172.16 586.26 180.85 596.53 189.73 606.61 198.47 616.33 207.19 625.52 215.8 634.31 224.03 642.38 232.09 649.59 239.95 656.15 247.38 661.66 254.65 666.01 261.81 669.56 268.6 671.87 275.37 672.9 282.18 673.18 288.73 672.27 295.42 670.26 302.32 667.84 309.06 664.61 316.07 660.78 323.41 657.1 330.65 653.27 338.27 649.52 346.27 646.59 354.22 644.18 362.59 642.49 371.38 642.11 380.15 642.68 389.35 644.22 399 647.16 408.65 650.84 418.54 655.06 428.64 660.14 438.75 665.28 449.09 670.21 459.63 675.26 470.19 679.6 480.94 683.03 491.84 685.91 502.73 687.54 513.72 687.84 524.72 687.22 535.62 685.17 546.4 681.72 556.95 677.34 567.2 671.68 577 664.88 586.19 657.36 594.82 648.92 602.6 639.76 609.34 630.19 615.28 620.13 620.01 609.74 623.43 599.23 626.02 588.58 627.33 577.9 627.42 567.3 627.01 556.77 625.75 546.37 623.89 536.15 622.3 526.08 620.75 516.18 619.61 506.47 619.7 496.89 620.85 487.45 623.31 478.16 627.65 468.95 633.54 459.8 640.92 450.75 649.89 441.71 659.86 432.67 670.36 423.68 681.14 414.65 691.34 405.58 700.28 396.53 707.77 387.41 712.91 378.25 715.26 369.09 715.08 360.09 711.93 351.28 706.12 342.47 698.44 333.85 689.02 325.46 678.49 317.08 667.72 308.93 657 301.06 646.87 293.21 637.98 285.63 630.38 278.37 624.23 271.13 619.91 264.2 617.02 257.61 615.38 251.02 615.2 244.75 615.73 238.81 616.63 230.01 618.73 213.76 620.14 206.21 618.16 201.11 615.78 196.21 612.15 191.5 607.31 186.58 601.71 181.8 595.02 177.18 587.37 172.32 579.13 167.58 570.15 163 560.6 158.19 550.69 153.53 540.41 149.08 529.91 144.46 519.24 140.09 508.49 136.03 497.75 131.9 486.97 128.15 476.27 124.83 465.71 121.59 455.17 118.86 444.79 116.72 434.61 114.77 424.45 113.48 414.49 112.9 404.76 112.59 395.02 113.03 385.73 114.19 376.86 115.63 367.98 117.75 359.5 120.52 351.41 123.49 343.26 127.04 335.47 131.12 328 135.29 320.43 139.91 313.13 144.91 306.05 149.88 298.78 155.17 291.66 160.71 284.62 166.12 277.29 171.73 269.95 177.5 262.55 183.08 254.77 188.79 246.86 194.63 238.79 200.24 230.32 205.98 221.7 211.85 212.95 217.51 203.92 223.33 194.89 229.31 185.95 235.12 177.02 241.14 168.41 247.38 160.3 253.49 152.58 259.86 145.62 266.48 139.59 273.03 134.28 279.87 130.08 286.99 127.08 294.07 124.86 301.45 123.79 309.12 123.8 316.77 124.3 324.71 125.57 332.95 127.43 341.16 129.14 349.67 130.99 358.46 132.76 367.23 133.75 376.29 134.33 385.62 134.4" stroke-dasharray="11 1" transform="rotate(24.24, 400, 400)" opacity="0.50"></path><path d="M391.09 148.92C400.08 148 409.16 146.68 418.33 145.08 427.51 142.87 436.8 140.74 446.18 138.88 455.6 137.02 465.13 135.85 474.75 135.49 484.43 135.67 494.22 136.91 504.08 139.26 514 142.36 523.98 146.58 533.98 151.82 544 157.71 553.99 164.46 563.87 171.91 573.67 179.7 583.27 187.95 592.56 196.51 601.62 205.08 610.23 213.76 618.27 222.44 625.88 230.89 632.76 239.24 638.78 247.45 644.2 255.33 648.64 263.06 652 270.67 654.67 277.95 656.24 285.16 656.69 292.35 656.54 299.28 655.4 306.27 653.33 313.38 650.99 320.31 648 327.42 644.54 334.77 641.31 342.01 637.98 349.55 634.76 357.39 632.32 365.19 630.35 373.34 629 381.86 628.83 390.35 629.47 399.25 630.94 408.55 633.64 417.85 636.97 427.35 640.78 437.02 645.36 446.7 650.01 456.55 654.5 466.54 659.15 476.51 663.22 486.59 666.52 496.71 669.42 506.77 671.25 516.79 671.92 526.68 671.85 536.4 670.51 545.87 667.91 554.93 664.5 563.66 659.9 571.82 654.22 579.26 647.85 586.17 640.57 592.19 632.53 597.19 624.04 601.53 615 604.78 605.53 606.91 595.87 608.45 585.96 608.98 575.91 608.61 565.85 608.06 555.77 606.98 545.72 605.62 535.78 604.77 525.92 604.19 516.18 604.18 506.57 605.44 497.08 607.75 487.71 611.28 478.47 616.47 469.31 622.98 460.25 630.71 451.28 639.71 442.35 649.42 433.48 659.42 424.66 669.51 415.85 678.93 407.06 687.12 398.29 693.93 389.52 698.6 380.76 700.74 372 700.63 363.45 697.84 355.12 692.63 346.8 685.72 338.69 677.13 330.84 667.4 322.98 657.32 315.37 647.07 308.04 637.15 300.71 628.17 293.66 620.17 286.91 613.35 280.15 608.1 273.69 604.11 267.53 601.3 258.4 599.58 241.48 600.27 233.64 601.08 225.87 601.53 211.13 597.87 204.06 593.23 199.19 589.19 194.45 584.14 189.85 578.17 185.01 571.66 180.3 564.35 175.73 556.39 170.95 548.06 166.33 539.22 161.91 530.03 157.35 520.62 153.03 510.98 149.01 501.22 144.95 491.37 141.25 481.48 137.98 471.63 134.79 461.75 132.11 451.96 130 442.28 128.07 432.61 126.78 423.08 126.18 413.71 125.85 404.34 126.25 395.34 127.34 386.71 128.7 378.05 130.73 369.73 133.39 361.73 136.25 353.67 139.68 345.87 143.63 338.33 147.68 330.66 152.17 323.17 157.05 315.82 161.92 308.29 167.1 300.81 172.55 293.35 177.89 285.62 183.44 277.85 189.16 269.98 194.7 261.81 200.39 253.51 206.2 245.1 211.8 236.41 217.53 227.64 223.37 218.84 229.01 209.92 234.79 201.11 240.7 192.53 246.45 184.1 252.37 176.1 258.48 168.69 264.45 161.75 270.64 155.62 277.05 150.44 283.37 145.95 289.95 142.53 296.78 140.22 303.56 138.61 310.6 138.02 317.93 138.39 325.22 139.12 332.79 140.51 340.64 142.38 348.48 144.05 356.6 145.8 365.01 147.46 373.4 148.36 382.09 148.87 391.08 148.92" stroke-dasharray="3 6" transform="rotate(28.28, 400, 400)" opacity="0.21"></path><path d="M397.28 163.44C405.92 162.56 414.66 161.32 423.5 159.81 432.36 157.71 441.31 155.65 450.36 153.81 459.43 151.91 468.6 150.58 477.84 149.96 487.12 149.75 496.46 150.5 505.83 152.24 515.23 154.64 524.63 158.08 533.98 162.51 543.3 167.58 552.51 173.52 561.54 180.19 570.44 187.29 579.07 194.94 587.33 202.99 595.32 211.18 602.82 219.6 609.71 228.13 616.19 236.56 621.94 245 626.87 253.38 631.26 261.52 634.75 269.57 637.26 277.52 639.2 285.2 640.18 292.81 640.19 300.36 639.75 307.68 638.48 315.01 636.44 322.38 634.26 329.57 631.56 336.88 628.49 344.33 625.71 351.68 622.87 359.23 620.16 367.01 618.17 374.74 616.6 382.74 615.56 391.03 615.57 399.3 616.26 407.9 617.66 416.81 620.13 425.73 623.14 434.78 626.55 443.91 630.66 453.05 634.83 462.27 638.89 471.52 643.13 480.75 646.9 489.96 650.04 499.09 652.89 508.13 654.83 517.01 655.78 525.62 656.14 534.03 655.38 542.07 653.52 549.61 650.96 556.81 647.31 563.37 642.66 569.19 637.38 574.55 631.21 579.05 624.28 582.63 616.89 585.71 608.9 587.88 600.44 589.13 591.72 590.05 582.67 590.23 573.39 589.81 564.04 589.45 554.56 588.85 545.04 588.23 535.56 588.27 526.08 588.74 516.67 589.86 507.34 592.21 498.09 595.56 488.94 600 479.87 605.87 470.89 612.82 462.01 620.72 453.2 629.61 444.47 638.96 435.81 648.4 427.19 657.79 418.63 666.44 410.13 673.88 401.65 680.05 393.21 684.27 384.83 686.22 376.44 686.17 368.3 683.72 360.41 679.08 352.52 672.89 344.87 665.11 337.48 656.2 330.07 646.83 322.93 637.14 316.06 627.56 309.18 618.65 302.56 610.44 296.23 603.15 289.87 597.15 283.78 592.24 277.97 588.37 269.31 584.94 253.13 582.68 245.54 582.61 237.97 582.79 223.46 580.38 216.44 577.12 211.61 574.27 206.89 570.55 202.29 565.98 197.48 560.98 192.79 555.21 188.24 548.74 183.5 541.94 178.93 534.56 174.56 526.72 170.06 518.66 165.81 510.26 161.85 501.61 157.87 492.84 154.26 483.91 151.05 474.9 147.94 465.85 145.32 456.76 143.24 447.69 141.35 438.61 140.08 429.58 139.46 420.61 139.12 411.64 139.46 402.95 140.48 394.53 141.76 386.08 143.69 377.88 146.22 369.91 148.96 361.88 152.25 354.03 156.03 346.34 159.95 338.54 164.29 330.83 169.01 323.2 173.75 315.39 178.81 307.59 184.13 299.77 189.38 291.73 194.84 283.62 200.48 275.44 205.98 267.03 211.62 258.54 217.39 250.01 222.98 241.31 228.68 232.63 234.5 224.03 240.13 215.44 245.88 207.08 251.76 199.05 257.47 191.28 263.33 184.03 269.34 177.44 275.22 171.36 281.29 166.1 287.55 161.77 293.71 158.1 300.1 155.42 306.71 153.76 313.25 152.68 320.04 152.51 327.08 153.17 334.07 154.08 341.34 155.54 348.87 157.39 356.37 159 364.16 160.64 372.23 162.17 380.28 162.98 388.62 163.42 397.27 163.44" stroke-dasharray="9 7" transform="rotate(32.32, 400, 400)" opacity="0.75"></path><path d="M403.68 177.96C411.97 177.13 420.35 175.96 428.81 174.55 437.29 172.57 445.85 170.61 454.48 168.82 463.13 166.91 471.84 165.47 480.59 164.64 489.35 164.12 498.14 164.42 506.91 165.61 515.66 167.36 524.36 170.07 532.94 173.7 541.46 177.93 549.81 183.01 557.92 188.84 565.86 195.14 573.48 202.04 580.68 209.42 587.61 217.04 594.02 224.99 599.83 233.15 605.25 241.34 609.98 249.62 613.93 257.94 617.42 266.13 620.1 274.3 621.91 282.41 623.27 290.33 623.79 298.19 623.5 306 622.89 313.62 621.58 321.22 619.66 328.81 617.68 336.26 615.3 343.75 612.65 351.32 610.3 358.79 607.93 366.38 605.7 374.12 604.12 381.81 602.91 389.68 602.16 397.75 602.32 405.8 603.05 414.07 604.37 422.57 606.64 431.06 609.34 439.58 612.37 448.09 616.04 456.6 619.76 465.08 623.38 473.48 627.23 481.84 630.68 490.08 633.6 498.12 636.34 506.05 638.32 513.72 639.46 521.02 640.14 528.12 639.86 534.77 638.6 540.87 635.36 549.25 623.38 562.01 614.95 566.21 608.65 568.43 601.72 569.91 594.28 570.72 586.56 571.41 578.45 571.62 570.05 571.47 561.51 571.6 552.78 571.7 543.94 571.96 535.06 572.96 526.13 574.48 517.21 576.68 508.31 580.01 499.45 584.24 490.65 589.41 481.9 595.77 473.22 602.99 464.63 610.91 456.08 619.56 447.61 628.47 439.23 637.3 430.89 645.96 422.61 653.85 414.43 660.58 406.25 666.14 398.15 669.94 390.13 671.69 382.1 671.7 374.34 669.57 366.85 665.46 359.34 659.95 352.09 652.96 345.1 644.85 338.09 636.23 331.34 627.17 324.85 618.04 318.34 609.34 312.08 601.1 306.09 593.54 300.05 587 294.25 581.35 288.71 576.6 280.41 571.59 264.76 566.28 257.35 565.05 249.92 564.51 235.55 562.16 228.55 559.67 223.74 557.6 219.04 554.81 214.45 551.31 209.67 547.51 205.02 542.99 200.5 537.82 195.82 532.37 191.31 526.33 187 519.78 182.59 513.02 178.43 505.84 174.56 498.32 170.69 490.68 167.17 482.78 164.05 474.68 161.03 466.52 158.48 458.22 156.46 449.83 154.62 441.43 153.37 432.95 152.75 424.43 152.38 415.92 152.68 407.56 153.62 399.37 154.81 391.16 156.63 383.09 159.01 375.16 161.61 367.18 164.74 359.29 168.35 351.48 172.1 343.59 176.27 335.72 180.81 327.87 185.39 319.89 190.29 311.88 195.46 303.84 200.58 295.64 205.93 287.39 211.46 279.1 216.88 270.68 222.45 262.24 228.15 253.83 233.7 245.37 239.37 237.02 245.15 228.85 250.76 220.81 256.49 213.08 262.33 205.78 268.02 198.81 273.83 192.41 279.78 186.71 285.6 181.53 291.58 177.15 297.73 173.66 303.78 170.77 310.01 168.77 316.45 167.69 322.81 167.09 329.39 167.26 336.2 168.14 342.95 169.18 349.96 170.67 357.2 172.46 364.42 173.97 371.9 175.49 379.65 176.88 387.37 177.59 395.38 177.97 403.67 177.96" stroke-dasharray="2 0" transform="rotate(36.36, 400, 400)" opacity="0.34"></path><path d="M409.79 192.48C417.7 191.7 425.69 190.61 433.73 189.31 441.77 187.46 449.88 185.62 458.02 183.9 466.17 182.01 474.34 180.52 482.51 179.53 490.67 178.75 498.8 178.69 506.86 179.39 514.89 180.55 522.81 182.58 530.56 185.44 538.21 188.85 545.65 193.07 552.79 198.03 559.77 203.45 566.38 209.51 572.55 216.09 578.46 222.98 583.86 230.27 588.66 237.86 593.13 245.58 596.95 253.48 600.06 261.49 602.8 269.49 604.81 277.54 606.06 285.58 606.98 293.52 607.19 301.44 606.71 309.32 606.02 317.08 604.77 324.81 603.02 332.51 601.3 340.1 599.26 347.7 597.02 355.31 595.09 362.85 593.18 370.44 591.38 378.09 590.19 385.7 589.3 393.41 588.79 401.22 589.08 409.01 589.85 416.93 591.09 424.95 593.15 432.97 595.57 440.91 598.24 448.74 601.49 456.56 604.78 464.25 608 471.76 611.44 479.22 614.56 486.45 617.24 493.4 619.83 500.25 621.78 506.75 623.02 512.82 623.95 521.44 620.95 535.66 616.99 541.07 611.51 545.49 596.32 550.98 586.95 552.33 580.24 553.13 573.11 553.67 565.64 554.07 558 554.87 550.11 555.79 542.04 556.99 533.9 558.96 525.64 561.47 517.33 564.63 509.01 568.8 500.67 573.73 492.34 579.45 484.05 586.11 475.78 593.42 467.58 601.22 459.4 609.52 451.29 617.91 443.26 626.09 435.25 634.01 427.32 641.16 419.48 647.21 411.64 652.19 403.89 655.59 396.23 657.17 388.56 657.23 381.16 655.38 374.02 651.77 366.87 646.91 359.98 640.67 353.34 633.36 346.67 625.51 340.25 617.13 334.08 608.53 327.88 600.17 321.91 592.07 316.18 584.42 310.4 577.56 304.83 571.38 299.49 565.94 294.07 561.47 288.85 557.7 283.82 554.56 276.2 551.32 261.56 547.2 254.48 545.54 247.29 543.98 233.19 538.84 226.29 534.91 221.56 531.92 216.95 528.34 212.49 524.16 207.89 519.8 203.47 514.87 199.24 509.42 194.95 503.82 190.9 497.75 187.14 491.29 183.39 484.72 179.99 477.81 176.97 470.62 174.06 463.37 171.6 455.88 169.65 448.2 167.87 440.5 166.66 432.62 166.03 424.61 165.65 416.59 165.9 408.62 166.76 400.71 167.86 392.79 169.55 384.92 171.78 377.1 174.22 369.24 177.17 361.4 180.59 353.58 184.14 345.7 188.11 337.81 192.45 329.9 196.84 321.9 201.55 313.87 206.53 305.82 211.5 297.68 216.69 289.52 222.07 281.37 227.38 273.17 232.85 265.03 238.45 256.99 243.93 249.01 249.54 241.21 255.25 233.69 260.83 226.37 266.51 219.44 272.3 212.99 277.95 206.91 283.72 201.44 289.61 196.66 295.38 192.37 301.29 188.85 307.34 186.16 313.29 183.97 319.4 182.59 325.69 182.01 331.9 181.8 338.31 182.25 344.91 183.29 351.46 184.4 358.23 185.87 365.22 187.57 372.17 188.96 379.36 190.34 386.79 191.59 394.2 192.2 401.86 192.51 409.78 192.48" stroke-dasharray="1 9" transform="rotate(40.400000000000006, 400, 400)" opacity="0.17"></path><path d="M415.1 207.01C422.61 206.27 430.16 205.27 437.73 204.07 445.3 202.37 452.89 200.66 460.48 199.03 468.06 197.21 475.63 195.71 483.14 194.61 490.64 193.65 498.06 193.29 505.36 193.58 512.6 194.24 519.69 195.64 526.57 197.8 533.35 200.43 539.87 203.81 546.06 207.89 552.09 212.42 557.74 217.57 562.94 223.28 567.92 229.32 572.39 235.81 576.31 242.66 579.95 249.7 582.99 257.01 585.41 264.5 587.52 272.06 589.01 279.74 589.85 287.48 590.45 295.2 590.46 302.94 589.9 310.68 589.23 318.35 588.1 326.02 586.58 333.64 585.13 341.21 583.45 348.76 581.61 356.29 580.09 363.76 578.59 371.24 577.2 378.72 576.35 386.17 575.75 393.64 575.46 401.12 575.86 408.6 576.65 416.1 577.81 423.6 579.67 431.11 581.82 438.44 584.17 445.57 587.02 452.68 589.91 459.58 592.72 466.21 595.77 472.81 598.55 479.1 600.98 485.05 604.3 493.65 607.69 508.55 607.48 514.68 605.98 520.07 598.72 528.03 593.07 530.7 586.28 532.96 569.57 536.31 559.97 537.96 553.26 539.53 546.26 541.33 539.04 543.47 531.71 546.33 524.22 549.71 516.62 553.68 508.98 558.5 501.27 563.96 493.53 570.01 485.79 576.81 478.05 584.05 470.33 591.59 462.63 599.45 454.96 607.26 447.34 614.76 439.75 621.95 432.21 628.38 424.75 633.77 417.3 638.21 409.92 641.23 402.63 642.65 395.34 642.75 388.29 641.17 381.49 638.02 374.68 633.77 368.11 628.25 361.78 621.72 355.42 614.63 349.29 606.96 343.39 598.98 337.45 591.08 331.72 583.26 326.2 575.7 320.62 568.71 315.24 562.21 310.05 556.28 304.78 551.14 299.67 546.59 294.74 542.6 287.25 537.96 272.77 531.32 265.74 528.72 258.6 526.52 244.61 521.2 237.77 517.67 230.85 513.63 217.55 502.96 211.28 496.33 207.13 491.64 203.21 486.5 199.59 480.94 195.99 475.3 192.72 469.28 189.83 462.92 187.04 456.52 184.69 449.81 182.81 442.83 181.11 435.83 179.93 428.58 179.31 421.1 178.93 413.63 179.13 406.1 179.9 398.55 180.91 391 182.46 383.42 184.53 375.82 186.81 368.2 189.56 360.55 192.76 352.88 196.11 345.17 199.85 337.43 203.95 329.66 208.13 321.86 212.62 314.03 217.38 306.2 222.15 298.36 227.15 290.53 232.34 282.77 237.5 275.05 242.81 267.44 248.27 260 253.65 252.7 259.15 245.65 264.76 238.94 270.26 232.48 275.87 226.45 281.58 220.94 287.17 215.8 292.88 211.26 298.68 207.39 304.39 203.97 310.21 201.25 316.16 199.28 322.02 197.73 328.02 196.88 334.16 196.71 340.23 196.81 346.47 197.46 352.87 198.59 359.23 199.72 365.77 201.12 372.49 202.71 379.19 203.97 386.09 205.19 393.19 206.3 400.28 206.81 407.58 207.06 415.09 207.01" stroke-dasharray="9 11" transform="rotate(44.44, 400, 400)" opacity="0.08"></path><path d="M419.19 221.53C426.26 220.84 433.34 219.93 440.39 218.85 447.45 217.3 454.49 215.72 461.47 214.21 468.45 212.49 475.36 211.02 482.18 209.87 488.97 208.79 495.64 208.2 502.15 208.16 508.61 208.39 514.86 209.27 520.88 210.8 526.79 212.72 532.42 215.32 537.71 218.56 542.86 222.2 547.62 226.44 551.95 231.23 556.09 236.36 559.76 241.95 562.92 247.94 565.86 254.16 568.26 260.7 570.12 267.48 571.76 274.39 572.86 281.48 573.42 288.69 573.82 295.95 573.73 303.27 573.18 310.63 572.59 318 571.63 325.37 570.37 332.72 569.22 340.05 567.89 347.37 566.44 354.64 565.31 361.89 564.19 369.12 563.16 376.29 562.62 383.46 562.27 390.59 562.17 397.67 562.66 404.74 563.44 411.77 564.53 418.73 566.21 425.68 568.1 432.39 570.15 438.84 572.63 445.28 575.14 451.44 577.57 457.28 581.46 465.83 587.86 481.06 589.96 487.63 590.92 498.54 585.1 510.54 580.6 513.23 575.09 515.81 561.14 520.69 552.93 523.45 547.15 525.81 541.05 528.44 534.7 531.43 528.23 535.07 521.56 539.16 514.73 543.75 507.85 549.03 500.85 554.8 493.77 561.01 486.68 567.76 479.54 574.8 472.39 581.97 465.23 589.31 458.08 596.49 450.96 603.3 443.84 609.77 436.76 615.5 429.73 620.27 422.7 624.2 415.73 626.87 408.82 628.13 401.91 628.26 395.23 626.92 388.76 624.2 382.29 620.51 376.03 615.68 369.98 609.9 363.91 603.58 358.04 596.65 352.37 589.34 346.66 581.98 341.14 574.57 335.8 567.26 330.4 560.34 325.17 553.73 320.11 547.52 314.96 541.92 309.96 536.79 305.11 532.13 297.74 526.3 283.43 517.21 276.45 513.54 269.39 510.46 255.59 504.18 248.86 500.61 242.1 496.8 229.18 487.29 223.12 481.51 219.13 477.46 215.38 473 211.91 468.15 208.48 463.25 205.37 457.97 202.62 452.33 199.98 446.66 197.74 440.65 195.96 434.33 194.34 427.99 193.21 421.36 192.6 414.45 192.2 407.54 192.36 400.52 193.05 393.41 193.95 386.31 195.37 379.13 197.27 371.89 199.36 364.65 201.91 357.34 204.88 350 208 342.65 211.49 335.26 215.34 327.85 219.27 320.46 223.5 313.06 228 305.7 232.54 298.37 237.3 291.11 242.27 283.97 247.22 276.92 252.34 270.05 257.61 263.4 262.83 256.93 268.17 250.77 273.63 244.98 279.01 239.46 284.5 234.39 290.08 229.83 295.58 225.63 301.18 222 306.87 218.99 312.48 216.36 318.19 214.37 324.01 213.03 329.75 212.01 335.61 211.59 341.59 211.75 347.52 212.08 353.58 212.85 359.77 214.01 365.92 215.11 372.22 216.42 378.67 217.86 385.1 218.98 391.7 220.05 398.45 221 405.19 221.41 412.1 221.6 419.18 221.53" stroke-dasharray="11 11" transform="rotate(48.48, 400, 400)" opacity="0.61"></path><path d="M421.72 236.05C428.33 235.41 434.9 234.59 441.41 233.62 447.91 232.23 454.36 230.81 460.71 229.43 467.06 227.83 473.3 226.43 479.4 225.29 488.44 223.78 505.53 223.23 513.44 224.45 518.54 225.75 523.35 227.65 527.82 230.12 536.38 236.07 543.41 244.2 548.66 254.08 553.24 264.93 556 277.03 556.89 289.89 557.19 296.47 557.09 303.18 556.63 309.95 556.17 316.78 555.42 323.64 554.44 330.52 553.59 337.41 552.6 344.29 551.52 351.13 550.73 357.99 549.96 364.8 549.26 371.54 548.98 378.29 548.85 384.97 548.9 391.57 549.46 398.16 550.24 404.67 551.24 411.05 552.75 417.44 554.41 423.55 556.17 429.37 559.39 437.93 565.9 453.43 568.83 460.31 573.17 472.32 574.73 486.75 573.19 490.4 570.04 495.28 564.72 499.41 557.48 503.24 549.41 508.31 539.74 514.03 528.87 520.86 523.26 525.1 517.42 529.72 511.39 534.73 505.3 540.27 499.05 546.17 492.69 552.35 486.3 558.9 479.83 565.6 473.3 572.3 466.76 579.06 460.19 585.58 453.61 591.69 447.03 597.45 440.45 602.51 433.88 606.7 427.33 610.15 420.79 612.49 414.3 613.61 407.8 613.76 401.49 612.64 395.37 610.32 389.24 607.16 383.29 602.97 377.52 597.91 371.73 592.33 366.11 586.15 360.67 579.55 355.18 572.81 349.85 565.92 344.68 559 339.46 552.3 334.37 545.78 329.43 539.5 324.41 533.68 319.52 528.18 314.75 523.05 304.96 514.35 295.55 506.9 286.55 500.35 277.16 495.23 268.12 490.15 259.55 484.64 253 480.67 240.56 471.5 234.77 466.17 229.19 460.49 219.41 447.38 215.35 439.96 212.87 434.88 210.77 429.47 209.08 423.75 207.55 418.01 206.48 411.97 205.88 405.64 205.49 399.3 205.6 392.83 206.2 386.25 207 379.68 208.28 373 210 366.26 211.91 359.52 214.24 352.72 216.97 345.88 219.83 339.06 223.06 332.22 226.62 325.38 230.28 318.58 234.23 311.82 238.44 305.12 242.7 298.51 247.19 292 251.89 285.66 261.28 273.37 271.34 262.03 281.88 252.14 292.23 243.28 303 236.29 314.1 231.5 322.35 228.89 339.21 226.76 347.83 227.1 353.57 227.57 359.42 228.4 365.37 229.54 371.29 230.56 377.33 231.75 383.47 233.03 389.61 233.98 395.87 234.89 402.24 235.7 408.61 236.01 415.1 236.14 421.71 236.05" stroke-dasharray="7 6" transform="rotate(52.52, 400, 400)" opacity="0.19"></path><path d="M422.49 250.57C434.71 248.93 446.62 246.85 458.07 244.68 469.46 241.6 480.28 239.38 490.3 238.41 500.11 237.88 508.94 239.26 516.54 242.6 523.73 247 529.52 253.37 533.75 261.41 537.51 270.36 539.72 280.62 540.41 291.78 540.95 303.42 540.33 315.61 538.8 328 537.87 340.56 536.66 353.16 535.49 365.54 535.75 377.96 536.55 390.1 537.96 401.73 541.05 413.36 544.38 423.87 547.65 433.19 551.71 442.46 554.95 450.52 557.04 457.35 558.94 464.21 559.15 470.02 557.58 474.96 555.31 480.35 551.16 485.38 545.3 490.43 538.76 496.71 530.71 503.69 521.47 511.67 511.81 521.38 501.23 532.23 490.02 543.91 478.66 556.51 466.87 568.86 454.88 579.93 442.87 589.64 430.73 596.34 418.61 599.09 406.5 598.63 394.95 593.93 384.01 585.73 373.01 575.64 362.53 563.64 352.58 550.79 342.47 538.34 332.77 526.32 323.51 515.2 313.99 505.63 304.8 497.07 295.99 489.36 286.88 482.95 278.12 476.81 269.83 470.59 261.34 464.95 253.4 458.68 246.23 451.56 239.11 444.55 232.96 436.44 228.03 427.2 223.52 417.93 220.48 407.51 219.16 395.98 218.56 384.45 219.81 372.42 222.74 360.13 226.32 347.9 231.43 335.51 237.84 323.24 244.64 311.2 252.52 299.5 261.24 288.49 270.06 278.04 279.56 268.64 289.54 260.67 299.43 253.62 309.76 248.3 320.38 244.92 330.86 242.43 341.69 241.74 352.78 242.7 363.76 243.77 375.09 245.73 386.72 248.18 398.31 249.42 410.26 250.3 422.48 250.57" stroke-dasharray="10 6" transform="rotate(56.56, 400, 400)" opacity="0.72"></path><path d="M421.44 265.09C432.61 263.62 443.36 261.82 453.55 259.93 463.68 257.18 473.16 255.1 481.8 253.99 490.27 253.08 497.76 253.73 504.11 256.01 510.16 259.07 514.96 263.86 518.41 270.18 521.57 277.27 523.45 285.66 524.1 295 524.75 304.84 524.49 315.34 523.5 326.18 523.11 337.24 522.48 348.45 521.85 359.54 522.42 370.69 523.35 381.64 524.68 392.14 527.38 402.65 530.19 412.18 532.88 420.69 536.28 429.2 538.98 436.73 540.74 443.33 542.46 450.07 542.8 456.1 541.66 461.61 540.04 467.66 536.83 473.63 532.13 479.8 526.89 487.07 520.29 494.99 512.53 503.7 504.42 513.7 495.36 524.45 485.61 535.58 475.69 547.19 465.25 558.28 454.47 568 443.66 576.44 432.59 582.21 421.42 584.56 410.24 584.27 399.47 580.35 389.16 573.37 378.8 564.69 368.83 554.12 359.29 542.53 349.62 530.98 340.28 519.43 331.31 508.38 322.13 498.39 313.26 489.13 304.74 480.59 296.01 473.12 287.63 466.02 279.73 459.05 271.71 452.69 264.24 446.01 257.53 438.83 250.91 431.84 245.21 424.08 240.67 415.47 236.51 406.87 233.7 397.35 232.45 386.92 231.83 376.5 232.89 365.71 235.48 354.78 238.65 343.92 243.24 333.05 249.02 322.42 255.18 312.05 262.37 302.14 270.38 293.03 278.54 284.43 287.37 276.9 296.69 270.74 305.99 265.32 315.73 261.42 325.75 259.19 335.71 257.56 345.96 257.38 356.43 258.51 366.84 259.54 377.51 261.25 388.36 263.32 399.2 264.26 410.26 264.91 421.44 265.09" stroke-dasharray="11 1" transform="rotate(60.599999999999994, 400, 400)" opacity="0.47"></path><path d="M418.64 279.61C428.74 278.31 438.33 276.77 447.3 275.19 456.22 272.8 464.46 270.93 471.87 269.82 482.32 268.78 497.95 274.01 502.88 280.52 505.63 285.92 507.34 292.52 508.07 300.09 508.9 308.09 509.01 316.82 508.55 326.01 508.63 335.42 508.51 345.11 508.33 354.82 509.14 364.6 510.16 374.3 511.39 383.73 513.74 393.16 516.07 401.84 518.23 409.75 521.01 417.68 523.2 424.92 524.61 431.53 526.07 438.33 526.42 444.73 525.55 450.88 524.39 457.55 521.9 464.32 518.13 471.36 513.97 479.28 508.6 487.74 502.16 496.75 495.43 506.64 487.79 516.93 479.41 527.25 470.89 537.73 461.76 547.51 452.21 555.91 442.62 563.14 432.67 568.04 422.49 570.04 412.3 569.89 402.37 566.66 392.75 560.81 383.11 553.47 373.73 544.35 364.68 534.12 355.54 523.67 346.66 512.92 338.08 502.32 329.37 492.38 320.93 482.87 312.82 473.89 304.58 465.73 296.69 457.92 289.26 450.35 281.8 443.32 274.88 436.21 268.68 428.87 262.61 421.75 257.41 414.16 253.26 406.03 249.47 397.94 246.9 389.19 245.73 379.82 245.11 370.45 246 360.91 248.25 351.4 251.01 341.97 255.05 332.67 260.18 323.75 265.68 315.07 272.14 306.95 279.37 299.67 286.78 292.81 294.85 286.98 303.4 282.39 312 278.34 321.01 275.6 330.31 274.22 339.6 273.2 349.15 273.32 358.88 274.46 368.58 275.35 378.47 276.75 388.46 278.43 398.45 279.08 408.55 279.51 418.64 279.61" stroke-dasharray="6 1" transform="rotate(64.64, 400, 400)" opacity="0.73"></path><path d="M414.34 294.13C423.34 292.99 431.79 291.72 439.62 290.44 447.41 288.42 454.52 286.82 460.85 285.81 469.79 284.59 483.12 287.74 487.4 292.45 489.9 296.39 491.56 301.42 492.44 307.36 493.48 313.64 493.95 320.67 493.96 328.24 494.45 336 494.75 344.14 494.93 352.47 495.91 360.86 496.98 369.33 498.11 377.74 500.12 386.15 502.02 394.08 503.72 401.5 505.93 408.97 507.63 416.03 508.68 422.72 509.86 429.61 510.12 436.34 509.4 443.01 508.52 450.11 506.55 457.4 503.51 464.94 500.21 473.13 495.85 481.7 490.54 490.57 485.02 499.98 478.64 509.51 471.53 518.82 464.3 528.06 456.44 536.5 448.09 543.63 439.7 549.74 430.88 553.84 421.73 555.52 412.58 555.48 403.55 552.88 394.71 548.06 385.86 541.98 377.17 534.26 368.72 525.44 360.22 516.25 351.91 506.55 343.86 496.74 335.73 487.27 327.83 477.96 320.26 468.98 312.62 460.56 305.31 452.41 298.47 444.52 291.64 437.06 285.33 429.65 279.71 422.21 274.23 414.99 269.54 407.53 265.82 399.82 262.42 392.15 260.09 384.11 259.01 375.73 258.4 367.35 259.12 359.03 261.03 350.91 263.39 342.84 266.89 335.08 271.37 327.8 276.18 320.7 281.88 314.23 288.29 308.58 294.89 303.24 302.11 298.85 309.81 295.54 317.58 292.56 325.76 290.67 334.22 289.88 342.69 289.22 351.42 289.46 360.28 290.47 369.16 291.14 378.17 292.21 387.21 293.48 396.26 293.87 405.34 294.11 414.34 294.13" stroke-dasharray="9 0" transform="rotate(68.68, 400, 400)" opacity="0.26"></path><path d="M408.87 308.66C416.77 307.67 424.13 306.64 430.9 305.66 440.69 303.38 456.82 300.72 463.01 301.09 468.36 302.53 475.39 310.53 477.3 316.94 478.54 321.72 479.34 327.24 479.74 333.33 480.56 339.56 481.18 346.26 481.65 353.27 482.73 360.34 483.8 367.64 484.83 375.09 486.53 382.53 488.05 389.75 489.33 396.72 491.04 403.74 492.3 410.59 493 417.29 493.86 424.16 493.98 431.03 493.32 437.94 492.59 445.18 490.98 452.62 488.48 460.23 485.83 468.27 482.3 476.53 477.93 484.88 473.42 493.5 468.13 502.03 462.16 510.18 456.1 518.12 449.43 525.25 442.23 531.17 435 536.23 427.3 539.62 419.22 541 411.13 541.05 403.05 539 395.07 535.11 387.09 530.19 379.2 523.82 371.47 516.4 363.71 508.56 356.1 500.1 348.7 491.35 341.27 482.69 334.05 474 327.13 465.45 320.2 457.21 313.59 449.15 307.41 441.3 301.28 433.75 295.64 426.31 290.64 418.96 285.78 411.78 281.64 404.55 278.35 397.28 275.34 390.06 273.28 382.71 272.3 375.26 271.7 367.82 272.26 360.63 273.86 353.8 275.83 347 278.79 340.62 282.62 334.79 286.74 329.08 291.65 324.02 297.21 319.72 302.95 315.61 309.28 312.34 316.04 309.97 322.91 307.77 330.16 306.45 337.67 305.98 345.22 305.49 353.01 305.69 360.91 306.47 368.84 306.88 376.88 307.59 384.9 308.48 392.95 308.62 400.98 308.69 408.87 308.66" stroke-dasharray="2 4" transform="rotate(72.72, 400, 400)" opacity="0.58"></path><path d="M402.69 323.18C412.66 321.95 429.99 319.1 437.23 318.03 448.88 317.61 460.61 323.89 462.71 328.71 464.65 334.41 467.37 348.99 468.47 357.53 469.6 363.39 470.63 369.62 471.55 376.14 472.96 382.66 474.15 389.18 475.07 395.65 476.33 402.15 477.19 408.66 477.59 415.17 478.14 421.81 478.09 428.54 477.42 435.34 476.75 442.36 475.37 449.53 473.28 456.8 471.11 464.3 468.21 471.87 464.62 479.39 460.94 486.98 456.59 494.34 451.62 501.23 446.59 507.87 440.99 513.73 434.88 518.53 428.75 522.63 422.15 525.36 415.14 526.48 408.13 526.59 401.06 525.03 394.02 521.96 386.98 518.09 379.97 512.99 373.08 506.94 366.17 500.47 359.37 493.35 352.76 485.84 346.14 478.28 339.71 470.52 333.55 462.77 327.41 455.15 321.58 447.58 316.14 440.16 310.77 432.92 305.85 425.78 301.5 418.78 297.29 411.9 293.7 405.08 290.86 398.36 288.26 391.68 286.46 385.03 285.58 378.49 285.22 368.86 289.54 351.81 293.96 344.58 299.45 338.04 313.78 328.38 322.26 325.4 328.16 323.7 334.41 322.68 340.9 322.32 347.45 321.85 354.22 321.89 361.09 322.37 367.99 322.5 374.97 322.87 381.94 323.41 388.93 323.34 395.88 323.26 402.69 323.18" stroke-dasharray="4 6" transform="rotate(76.76, 400, 400)" opacity="0.79"></path><path d="M396.28 337.7C407.78 335.79 417.61 334.48 425.51 334.09 436.38 333.05 449.32 341.79 452.42 352.08 455.07 359.81 457.05 369.49 458.26 380.76 460.91 392.02 462.37 403.87 462.47 415.9 463.11 428.24 461.69 441.16 458.12 454.13 454.46 467.45 448.42 480.49 440.28 491.91 431.98 502.28 421.71 509.49 409.84 511.96 397.97 511.55 385.73 506.09 373.78 496.98 361.88 486.42 350.28 473.73 339.64 460.38 329.16 447.11 319.8 433.73 312.33 420.96 305.36 408.44 300.62 396.26 298.86 384.93 298.06 373.59 300.45 364.08 305.42 356.66 311.14 349.32 319.14 344.19 328.64 341.42 338.52 338.5 349.62 337.49 361.16 338.1 372.83 337.45 384.78 337.38 396.28 337.7" stroke-dasharray="2 11" transform="rotate(80.80000000000001, 400, 400)" opacity="0.53"></path><path d="M390.18 352.22C399.61 350.74 407.77 349.96 414.43 350.02 423.76 349.61 435.88 356.7 439.31 364.83 441.95 370.89 443.9 378.75 444.98 388.25 447.03 397.74 447.93 408.04 447.65 418.65 447.82 429.41 446.35 440.62 443.23 451.65 440.13 462.69 435.18 473.21 428.55 482.12 421.84 490.14 413.49 495.61 403.74 497.44 393.98 497.3 383.85 493.32 373.9 486.46 364.01 478.46 354.37 468.51 345.56 457.72 336.92 446.75 329.24 435.43 323.15 424.5 317.47 413.66 313.61 403.18 312.15 393.61 311.37 384.04 313.17 376.21 317.04 370.23 321.47 364.21 327.76 359.99 335.33 357.59 343.21 354.89 352.14 353.62 361.51 353.59 370.98 352.55 380.74 352.11 390.18 352.22" stroke-dasharray="8 1" transform="rotate(84.84, 400, 400)" opacity="0.10"></path><path d="M384.87 366.74C395.6 365.49 412.17 365.97 417.96 368.58 423.12 372.21 429.89 386.65 431.7 397.49 433.22 405.19 433.69 413.64 433.17 422.36 432.96 431.11 431.5 440.12 428.8 448.81 426.17 457.36 422.16 465.29 416.89 471.83 411.59 477.69 405.01 481.63 397.33 482.91 389.65 482.96 381.64 480.23 373.78 475.36 365.98 469.69 358.38 462.39 351.47 454.25 344.71 445.86 338.73 436.98 334.02 428.25 329.6 419.52 326.59 411.02 325.43 403.26 325.36 392.31 334.43 377.49 342.51 373.41 348.45 370.83 355.27 369.3 362.5 368.75 369.81 367.47 377.42 366.78 384.87 366.74" stroke-dasharray="11 4" transform="rotate(88.88, 400, 400)" opacity="0.90"></path><path d="M380.79 381.26C391.85 379.21 400.78 380.29 406.65 384.37 413.03 387.73 417.3 395.39 418.41 407.11 420.84 418.83 419.53 432.6 415 445.08 410.73 456.98 402.49 466.07 391.14 468.39 379.79 468 367.67 460.48 357.55 449.5 347.84 437.73 340.69 424.22 338.71 412.41 337.81 400.59 342.41 392.53 350.31 388.42 358.72 383.43 369.72 380.92 380.79 381.26" stroke-dasharray="3 1" transform="rotate(92.92, 400, 400)" opacity="0.10"></path><path d="M378.26 395.79C388.74 395.3 402.64 404.97 405.13 415.67 406.56 423.58 405.32 432.41 401.97 440.04 398.78 447.3 393.14 452.64 385.67 453.87 378.2 453.92 370.4 449.68 363.98 443.14 357.78 436.17 353.25 427.67 352 419.71 351.24 411.75 353.96 405.77 358.85 402.2 363.98 398.16 370.93 395.83 378.26 395.79" stroke-dasharray="8 4" transform="rotate(96.96, 400, 400)" opacity="0.39"></path></g></svg>