<svg id="visual" viewBox="0 0 900 675" width="900" height="675" xmlns="http://www.w3.org/2000/svg" xmlns:xlink="http://www.w3.org/1999/xlink" version="1.1"><rect x="0" y="0" width="900" height="675" fill="#080b19"></rect><path d="M0 314L129 326L257 306L386 291L514 365L643 341L771 385L900 325L900 0L771 0L643 0L514 0L386 0L257 0L129 0L0 0Z" fill="#c62368"></path><path d="M0 281L129 267L257 236L386 315L514 342L643 306L771 324L900 292L900 0L771 0L643 0L514 0L386 0L257 0L129 0L0 0Z" fill="#a2276e"></path><path d="M0 220L129 277L257 209L386 281L514 284L643 176L771 274L900 241L900 0L771 0L643 0L514 0L386 0L257 0L129 0L0 0Z" fill="#7d2b6c"></path><path d="M0 182L129 186L257 166L386 174L514 183L643 230L771 232L900 174L900 0L771 0L643 0L514 0L386 0L257 0L129 0L0 0Z" fill="#592b63"></path><path d="M0 173L129 133L257 136L386 157L514 122L643 167L771 159L900 183L900 0L771 0L643 0L514 0L386 0L257 0L129 0L0 0Z" fill="#392854"></path><path d="M0 137L129 122L257 115L386 103L514 106L643 83L771 87L900 139L900 0L771 0L643 0L514 0L386 0L257 0L129 0L0 0Z" fill="#1f213f"></path><path d="M0 65L129 86L257 58L386 77L514 78L643 78L771 75L900 36L900 0L771 0L643 0L514 0L386 0L257 0L129 0L0 0Z" fill="#0f1728"></path></svg>